<svg xmlns="http://www.w3.org/2000/svg" viewBox="0 0 64 64" role="img" aria-labelledby="title desc">
  <title id="title">Andrey Pautov parrot logo</title>
  <desc id="desc">A compact geometric parrot mark for the portfolio header.</desc>
  <defs>
    <linearGradient id="body" x1="14" y1="8" x2="50" y2="58" gradientUnits="userSpaceOnUse">
      <stop offset="0" stop-color="#19b37b"/>
      <stop offset="1" stop-color="#0f62fe"/>
    </linearGradient>
    <linearGradient id="wing" x1="18" y1="24" x2="42" y2="54" gradientUnits="userSpaceOnUse">
      <stop offset="0" stop-color="#76d7c4"/>
      <stop offset="1" stop-color="#2147c7"/>
    </linearGradient>
  </defs>
  <rect width="64" height="64" rx="16" fill="#f6f8fb"/>
  <path d="M18 50V25c0-10 8-18 19-18 7 0 12 3 16 8-5 1-8 4-10 8 4 2 7 5 8 10-5-2-10-2-14 0-7 3-13 9-19 17z" fill="url(#body)"/>
  <path d="M20 51c7-15 16-25 28-29-3 10-10 24-28 29z" fill="url(#wing)" opacity=".92"/>
  <path d="M44 16l14 2-10 8c-1-4-2-7-4-10z" fill="#f5a524"/>
  <circle cx="37" cy="17" r="4.8" fill="#fff"/>
  <circle cx="38.5" cy="16.5" r="2" fill="#172033"/>
  <path d="M16 51c8-2 16-2 24 2-9 6-17 6-24-2z" fill="#0f62fe"/>
  <path d="M15 51c7 3 14 4 21 2" fill="none" stroke="#172033" stroke-width="2" stroke-linecap="round" opacity=".25"/>
</svg>
